<svg width="26" height="30" viewBox="0 0 26 30" fill="none" xmlns="http://www.w3.org/2000/svg">
<path d="M13.3333 0.849609C14.9975 0.849609 16.594 1.51071 17.7708 2.6875C18.9475 3.86429 19.6086 5.46077 19.6086 7.125V7.84961H25.7336V25.5C25.7336 26.468 25.3488 27.3965 24.6643 28.0811C23.9798 28.7656 23.0513 29.1504 22.0833 29.1504H4.58325C3.61521 29.1504 2.6867 28.7656 2.0022 28.0811C1.31769 27.3965 0.932861 26.468 0.932861 25.5V7.84961H7.05786V7.125C7.05786 5.46077 7.71896 3.86429 8.89575 2.6875C10.0725 1.51071 11.669 0.849609 13.3333 0.849609ZM2.98364 25.5C2.98364 25.9243 3.15136 26.3318 3.45142 26.6318C3.75147 26.9319 4.15891 27.0996 4.58325 27.0996H22.0833C22.5076 27.0996 22.915 26.9319 23.2151 26.6318C23.5151 26.3318 23.6829 25.9243 23.6829 25.5V9.90039H2.98364V25.5ZM13.3333 2.90039C12.2127 2.90039 11.1383 3.34535 10.3459 4.1377C9.55361 4.93004 9.10864 6.00446 9.10864 7.125V7.84961H17.5579V7.125C17.5579 6.00446 17.1129 4.93004 16.3206 4.1377C15.5282 3.34535 14.4538 2.90039 13.3333 2.90039Z" fill="black" stroke="black" stroke-width="0.3"/>
</svg>
