<svg width="24" height="25" viewBox="0 0 24 25" fill="none" xmlns="http://www.w3.org/2000/svg">
<path d="M18.7499 10.21V9.505C18.7499 5.636 15.7259 2.5 11.9999 2.5C8.27394 2.5 5.24994 5.636 5.24994 9.505V10.21C5.25114 11.0516 5.01098 11.8758 4.55794 12.585L3.44994 14.31C2.43894 15.885 3.21094 18.026 4.96994 18.524C9.56605 19.827 14.4338 19.827 19.0299 18.524C20.7889 18.026 21.5609 15.885 20.5499 14.311L19.4419 12.586C18.9885 11.8769 18.748 11.0527 18.7489 10.211L18.7499 10.21Z" stroke="#181818" stroke-width="2"/>
<path opacity="0.5" d="M7.5 19.5C8.155 21.248 9.922 22.5 12 22.5C14.078 22.5 15.845 21.248 16.5 19.5" stroke="#181818" stroke-width="2" stroke-linecap="round"/>
</svg>
