<svg width="29" height="28" viewBox="0 0 29 28" fill="none" xmlns="http://www.w3.org/2000/svg">
<path d="M20.1354 4.39355C21.9282 4.39564 23.647 5.10923 24.9147 6.37695C26.1824 7.64467 26.896 9.36343 26.8981 11.1562C26.8981 14.4364 24.8547 17.8106 20.9108 21.1855V21.1865C19.1017 22.7281 17.1467 24.0901 15.0748 25.2549L15.0719 25.2568C14.9473 25.3238 14.8081 25.3594 14.6666 25.3594C14.5252 25.3594 14.386 25.3238 14.2614 25.2568L14.2584 25.2549C12.1866 24.0901 10.2316 22.7281 8.42249 21.1865V21.1855C4.47856 17.8106 2.43518 14.4364 2.43518 11.1562C2.43727 9.36343 3.15086 7.64467 4.41858 6.37695C5.6863 5.10923 7.40505 4.39564 9.19788 4.39355L9.63635 4.40625C11.7094 4.52403 13.5158 5.47741 14.6666 7.02441C15.8979 5.36927 17.8799 4.39355 20.1354 4.39355ZM19.7379 6.11914C17.9026 6.24245 16.3759 7.21923 15.611 8.74023L15.4586 9.07422C15.3941 9.23126 15.2842 9.36543 15.1432 9.45996C15.0022 9.55448 14.8364 9.60547 14.6666 9.60547C14.4969 9.60547 14.3311 9.55448 14.1901 9.45996C14.0843 9.38906 13.996 9.29597 13.9313 9.1875L13.8746 9.07422C13.1274 7.24905 11.3429 6.10645 9.19788 6.10645C7.85898 6.10789 6.57529 6.64017 5.62854 7.58691C4.68179 8.53366 4.14952 9.81735 4.14807 11.1562L4.15393 11.4326C4.28343 14.2889 6.39564 17.0201 8.76917 19.2012C11.123 21.3642 13.6879 22.9428 14.6666 23.5137C15.6454 22.9428 18.2102 21.3642 20.5641 19.2012C23.0141 16.9498 25.1852 14.1124 25.1852 11.1562L25.1793 10.9062C25.1162 9.65841 24.5924 8.47457 23.7047 7.58691C22.758 6.64017 21.4743 6.10789 20.1354 6.10645L19.7379 6.11914Z" fill="black" stroke="#181818" stroke-width="0.4"/>
</svg>
