<svg width="28" height="28" viewBox="0 0 28 28" fill="none" xmlns="http://www.w3.org/2000/svg">
<path d="M4.66663 21C4.66663 19.7624 5.15829 18.5754 6.03346 17.7002C6.90863 16.825 8.09562 16.3334 9.33329 16.3334H18.6666C19.9043 16.3334 21.0913 16.825 21.9665 17.7002C22.8416 18.5754 23.3333 19.7624 23.3333 21C23.3333 21.6189 23.0875 22.2124 22.6499 22.65C22.2123 23.0875 21.6188 23.3334 21 23.3334H6.99996C6.38112 23.3334 5.78763 23.0875 5.35004 22.65C4.91246 22.2124 4.66663 21.6189 4.66663 21Z" stroke="black" stroke-width="2" stroke-linejoin="round"/>
<path d="M14 11.6667C15.933 11.6667 17.5 10.0997 17.5 8.16669C17.5 6.23369 15.933 4.66669 14 4.66669C12.067 4.66669 10.5 6.23369 10.5 8.16669C10.5 10.0997 12.067 11.6667 14 11.6667Z" stroke="black" stroke-width="2"/>
</svg>
